<svg width="1637" height="569" viewBox="0 0 1637 569" fill="none" xmlns="http://www.w3.org/2000/svg">
<path d="M687.2 398C667.2 398 650.267 394.8 636.4 388.4C622.533 381.733 611.333 373.2 602.8 362.8C594.267 352.133 588 340.667 584 328.4C580 316.133 578 304.267 578 292.8C578 271.733 582.667 253.2 592 237.2C601.333 221.2 614.267 208.667 630.8 199.6C647.333 190.533 666.267 186 687.6 186C704.133 186 718.267 188.667 730 194C741.733 199.333 751.2 206.133 758.4 214.4C765.867 222.667 771.333 231.467 774.8 240.8C778.267 250.133 780 258.8 780 266.8C780 282 776.267 293.6 768.8 301.6C761.333 309.6 751.733 313.6 740 313.6H654.8C655.867 317.867 658 321.6 661.2 324.8C664.667 327.733 668.933 330.133 674 332C679.067 333.6 684.533 334.4 690.4 334.4C696.267 334.4 701.467 334.133 706 333.6C710.533 332.8 714.4 331.867 717.6 330.8C721.067 329.733 724.133 328.667 726.8 327.6C729.733 326.533 732.267 325.733 734.4 325.2C736.8 324.4 739.067 324 741.2 324C746 324 750.4 325.6 754.4 328.8C758.4 332 762 336.8 765.2 343.2C767.067 346.667 768.4 350 769.2 353.2C770 356.133 770.4 358.933 770.4 361.6C770.4 369.6 767.067 376.267 760.4 381.6C754 386.933 744.667 390.933 732.4 393.6C720.133 396.533 705.067 398 687.2 398ZM654.8 276H699.6C703.333 276 706 275.2 707.6 273.6C709.467 272 710.4 269.6 710.4 266.4C710.4 262.933 709.333 260 707.2 257.6C705.333 255.2 702.667 253.467 699.2 252.4C695.733 251.067 691.6 250.4 686.8 250.4C680.4 250.4 674.8 251.733 670 254.4C665.2 256.8 661.467 260 658.8 264C656.4 267.733 655.067 271.733 654.8 276ZM834.063 393.2C822.063 393.2 813.529 391.467 808.463 388C803.396 384.267 800.329 379.6 799.262 374C798.463 368.4 798.063 362.667 798.063 356.8V225.2C798.063 219.333 798.596 213.733 799.663 208.4C800.729 203.067 803.796 198.8 808.863 195.6C813.929 192.133 822.463 190.4 834.463 190.4C845.396 190.4 853.263 191.867 858.063 194.8C863.129 197.467 866.329 200.8 867.663 204.8C868.996 208.8 869.529 212.533 869.263 216C869.263 219.2 869.529 221.2 870.063 222L866.863 224.4C866.596 220.4 868.063 216.4 871.263 212.4C874.729 208.4 879.129 204.8 884.463 201.6C890.063 198.133 895.929 195.467 902.063 193.6C908.463 191.467 914.463 190.4 920.063 190.4C933.396 190.4 945.129 192.933 955.263 198C965.396 203.067 973.796 210.267 980.463 219.6C987.396 228.667 992.596 239.333 996.063 251.6C999.529 263.867 1001.26 277.2 1001.26 291.6V357.2C1001.26 363.067 1000.73 368.8 999.663 374.4C998.596 380 995.529 384.533 990.463 388C985.663 391.467 977.129 393.2 964.863 393.2C952.596 393.2 943.929 391.467 938.863 388C933.796 384.267 930.729 379.6 929.663 374C928.596 368.4 928.063 362.667 928.063 356.8V291.6C928.063 285.467 926.863 280.267 924.463 276C922.329 271.733 919.129 268.533 914.863 266.4C910.863 264 905.796 262.8 899.663 262.8C893.796 262.8 888.596 264 884.063 266.4C879.796 268.8 876.463 272.133 874.063 276.4C871.663 280.667 870.463 285.733 870.463 291.6V357.2C870.463 363.067 869.929 368.8 868.863 374.4C867.796 380 864.729 384.533 859.663 388C854.863 391.467 846.329 393.2 834.063 393.2ZM1129.52 393.6C1115.39 393.6 1103.12 392 1092.72 388.8C1082.32 385.6 1073.65 380.667 1066.72 374C1060.05 367.333 1054.99 358.933 1051.52 348.8C1048.32 338.667 1046.72 326.8 1046.72 313.2V158C1046.72 151.867 1047.25 146.267 1048.32 141.2C1049.39 135.867 1052.45 131.6 1057.52 128.4C1062.59 124.933 1071.12 123.2 1083.12 123.2C1094.85 123.2 1103.25 125.067 1108.32 128.8C1113.39 132.267 1116.45 136.8 1117.52 142.4C1118.59 148 1119.12 153.733 1119.12 159.6V309.6C1119.12 312.533 1119.25 315.067 1119.52 317.2C1120.05 319.067 1120.72 320.533 1121.52 321.6C1122.32 322.667 1123.39 323.467 1124.72 324C1126.05 324.533 1127.79 324.8 1129.92 324.8C1136.85 324.8 1142.99 325.333 1148.32 326.4C1153.92 327.467 1158.19 330.267 1161.12 334.8C1164.32 339.333 1165.92 346.933 1165.92 357.6C1165.92 369.6 1164.05 378.133 1160.32 383.2C1156.59 388.267 1151.92 391.2 1146.32 392C1140.72 393.067 1135.12 393.6 1129.52 393.6ZM1038.32 192.8H1085.12L1140.32 190.8C1146.19 190.8 1151.79 191.333 1157.12 192.4C1162.72 193.467 1167.25 196.533 1170.72 201.6C1174.45 206.667 1176.32 215.333 1176.32 227.6C1176.32 238.8 1174.45 246.933 1170.72 252C1167.25 257.067 1162.72 260.267 1157.12 261.6C1151.79 262.933 1146.05 263.6 1139.92 263.6L1089.12 262.4H1036.72C1027.65 261.867 1021.39 258.933 1017.92 253.6C1014.45 248.267 1012.72 239.467 1012.72 227.2C1012.72 215.733 1014.85 207.2 1019.12 201.6C1023.39 195.733 1029.79 192.8 1038.32 192.8ZM1354.6 392.8C1342.6 392.8 1333.67 390.8 1327.8 386.8C1322.2 382.8 1319.54 378.267 1319.8 373.2H1325.4C1324.07 375.067 1321.4 377.6 1317.4 380.8C1313.67 383.733 1308.6 386.533 1302.2 389.2C1295.8 391.6 1287.94 392.8 1278.6 392.8C1266.6 392.8 1255 390.133 1243.8 384.8C1232.87 379.2 1223 371.6 1214.2 362C1205.67 352.4 1198.87 341.6 1193.8 329.6C1188.74 317.333 1186.2 304.533 1186.2 291.2C1186.2 278.133 1188.74 265.6 1193.8 253.6C1198.87 241.6 1205.8 230.933 1214.6 221.6C1223.4 212 1233.27 204.533 1244.2 199.2C1255.14 193.6 1266.6 190.8 1278.6 190.8C1287.67 190.8 1295.27 192.133 1301.4 194.8C1307.8 197.467 1312.87 200.4 1316.6 203.6C1320.6 206.8 1323.27 209.467 1324.6 211.6H1320.2C1319.94 204.933 1322.6 199.733 1328.2 196C1334.07 192.267 1343 190.4 1355 190.4C1367 190.4 1375.4 192.267 1380.2 196C1385.27 199.467 1388.34 204 1389.4 209.6C1390.47 215.2 1391 220.933 1391 226.8V356.8C1391 362.667 1390.47 368.4 1389.4 374C1388.34 379.6 1385.27 384.133 1380.2 387.6C1375.4 391.067 1366.87 392.8 1354.6 392.8ZM1288.6 320.4C1293.67 320.4 1298.2 319.067 1302.2 316.4C1306.47 313.733 1309.8 310.267 1312.2 306C1314.87 301.467 1316.2 296.667 1316.2 291.6C1316.2 286.267 1314.87 281.467 1312.2 277.2C1309.8 272.933 1306.47 269.467 1302.2 266.8C1297.94 264.133 1293.14 262.8 1287.8 262.8C1282.47 262.8 1277.54 264.133 1273 266.8C1268.74 269.467 1265.27 273.067 1262.6 277.6C1259.94 281.867 1258.6 286.667 1258.6 292C1258.6 297.067 1259.94 301.733 1262.6 306C1265.54 310.267 1269.27 313.733 1273.8 316.4C1278.34 319.067 1283.27 320.4 1288.6 320.4ZM1499.66 393.6C1487.39 393.6 1476.59 393.067 1467.26 392C1458.19 390.933 1450.46 388.8 1444.06 385.6C1437.66 382.4 1432.46 377.867 1428.46 372C1424.46 365.867 1421.53 358 1419.66 348.4C1417.79 338.533 1416.86 326.267 1416.86 311.6V134.4C1416.86 128.267 1417.39 122.533 1418.46 117.2C1419.53 111.6 1422.59 107.067 1427.66 103.6C1432.73 99.8667 1441.26 98 1453.26 98C1465.26 98 1473.66 99.8667 1478.46 103.6C1483.53 107.067 1486.59 111.6 1487.66 117.2C1488.73 122.8 1489.26 128.667 1489.26 134.8V307.2C1489.26 311.2 1489.26 314.4 1489.26 316.8C1489.53 318.933 1489.93 320.533 1490.46 321.6C1491.26 322.667 1492.33 323.333 1493.66 323.6C1495.26 323.6 1497.39 323.6 1500.06 323.6C1503.53 323.6 1507.13 324.133 1510.86 325.2C1514.86 326 1518.19 328.8 1520.86 333.6C1523.79 338.133 1525.26 346.133 1525.26 357.6C1525.26 369.6 1523.79 378.133 1520.86 383.2C1518.19 388.267 1514.86 391.2 1510.86 392C1506.86 393.067 1503.13 393.6 1499.66 393.6Z" fill="#699BF7"/>
<path d="M571.36 537L611.68 447.4H628.064L668.512 537H651.104L616.416 456.232H623.072L588.512 537H571.36ZM589.92 516.264L594.4 503.208H642.784L647.264 516.264H589.92ZM716.259 537.896C710.712 537.896 705.635 536.616 701.027 534.056C696.504 531.496 692.878 527.656 690.147 522.536C687.502 517.331 686.179 510.76 686.179 502.824C686.179 494.803 687.459 488.232 690.019 483.112C692.664 477.992 696.248 474.195 700.771 471.72C705.294 469.16 710.456 467.88 716.259 467.88C723 467.88 728.931 469.331 734.051 472.232C739.256 475.133 743.352 479.187 746.339 484.392C749.411 489.597 750.947 495.741 750.947 502.824C750.947 509.907 749.411 516.093 746.339 521.384C743.352 526.589 739.256 530.643 734.051 533.544C728.931 536.445 723 537.896 716.259 537.896ZM678.371 561.832V468.648H693.603V484.776L693.091 502.952L694.371 521.128V561.832H678.371ZM714.467 524.2C718.307 524.2 721.72 523.347 724.707 521.64C727.779 519.933 730.211 517.459 732.003 514.216C733.795 510.973 734.691 507.176 734.691 502.824C734.691 498.387 733.795 494.589 732.003 491.432C730.211 488.189 727.779 485.715 724.707 484.008C721.72 482.301 718.307 481.448 714.467 481.448C710.627 481.448 707.171 482.301 704.099 484.008C701.027 485.715 698.595 488.189 696.803 491.432C695.011 494.589 694.115 498.387 694.115 502.824C694.115 507.176 695.011 510.973 696.803 514.216C698.595 517.459 701.027 519.933 704.099 521.64C707.171 523.347 710.627 524.2 714.467 524.2ZM804.009 537.896C798.462 537.896 793.385 536.616 788.777 534.056C784.254 531.496 780.628 527.656 777.897 522.536C775.252 517.331 773.929 510.76 773.929 502.824C773.929 494.803 775.209 488.232 777.769 483.112C780.414 477.992 783.998 474.195 788.521 471.72C793.044 469.16 798.206 467.88 804.009 467.88C810.75 467.88 816.681 469.331 821.801 472.232C827.006 475.133 831.102 479.187 834.089 484.392C837.161 489.597 838.697 495.741 838.697 502.824C838.697 509.907 837.161 516.093 834.089 521.384C831.102 526.589 827.006 530.643 821.801 533.544C816.681 536.445 810.75 537.896 804.009 537.896ZM766.121 561.832V468.648H781.353V484.776L780.841 502.952L782.121 521.128V561.832H766.121ZM802.217 524.2C806.057 524.2 809.47 523.347 812.457 521.64C815.529 519.933 817.961 517.459 819.753 514.216C821.545 510.973 822.441 507.176 822.441 502.824C822.441 498.387 821.545 494.589 819.753 491.432C817.961 488.189 815.529 485.715 812.457 484.008C809.47 482.301 806.057 481.448 802.217 481.448C798.377 481.448 794.921 482.301 791.849 484.008C788.777 485.715 786.345 488.189 784.553 491.432C782.761 494.589 781.865 498.387 781.865 502.824C781.865 507.176 782.761 510.973 784.553 514.216C786.345 517.459 788.777 519.933 791.849 521.64C794.921 523.347 798.377 524.2 802.217 524.2Z" fill="#696969"/>
<path d="M505.477 543.499L505.491 543.481L505.505 543.464C524.86 519.36 542.094 493.75 557.205 466.637C572.32 439.517 584.817 411.529 594.693 382.675C604.562 353.846 612.018 324.786 617.06 295.496C622.103 266.202 624.536 237.39 624.355 209.064C624.237 190.708 620.648 173.092 613.589 156.238C606.524 139.368 596.298 124.391 582.935 111.322C569.533 98.2162 553.114 87.8581 533.736 80.2189C514.267 72.5444 492.15 68.8212 467.437 68.9794C452.619 69.0742 438.97 70.7749 426.507 74.1082C414.283 77.3776 401.963 80.9664 389.545 84.8742C377.213 88.7553 364.88 92.3192 352.546 95.5661C340.433 98.7548 327.394 100.403 313.417 100.492C299.032 100.585 285.878 99.1021 273.94 96.0722C261.762 92.9815 249.48 89.5742 237.095 85.8499C224.624 82.1001 212.155 78.669 199.687 75.5569C186.996 72.3894 173.432 70.8611 159.006 70.9534L158.997 70.9535L158.987 70.9536C134.28 71.2727 112.22 75.359 92.8582 83.2791C73.579 91.1657 57.2945 101.733 44.0615 115.01C30.8662 128.249 20.8327 143.355 13.984 160.314C7.14457 177.251 3.77937 194.828 3.89448 213.024C3.87616 241.521 6.67979 270.389 12.3002 299.625C17.9165 328.839 25.8427 357.794 36.0769 386.489C46.3201 415.208 59.0715 443.03 74.329 469.951C89.5922 496.883 107.16 522.202 127.03 545.905L127.037 545.913L127.043 545.921C132.197 551.986 138.704 556.739 146.502 560.197C154.345 563.675 162.882 565.366 172.072 565.307L172.094 565.307L172.115 565.307C183.567 565.068 193.948 562.347 203.189 557.094C212.463 551.822 219.024 544.701 222.658 535.711C222.66 535.706 222.662 535.702 222.664 535.698L274.394 410.57C280.765 411.19 287.214 411.55 293.739 411.653C300.963 411.766 308.186 411.799 315.409 411.753L315.442 411.753L315.475 411.752L326.275 411.444L337.074 411.137C343.524 410.953 349.896 410.58 356.188 410.018L396.359 530.968L396.392 531.066L396.432 531.162C397.555 533.895 399.822 536.459 402.377 538.747C404.984 541.084 408.156 543.364 411.419 545.481C416.795 548.969 422.646 552.156 426.966 554.508C427.879 555.006 428.724 555.466 429.482 555.884C438.803 561.026 449.233 563.533 460.7 563.46C469.89 563.401 478.405 561.601 486.202 558.023C493.955 554.465 500.401 549.63 505.477 543.499ZM48.3012 213.228L48.3011 213.206L48.3007 213.185C48.0178 199.412 50.2686 186.267 55.046 173.726C59.8228 161.187 66.8374 150.03 76.1039 140.238C85.3178 130.501 97.0063 122.617 111.239 116.621C125.367 110.67 141.945 107.59 161.04 107.468C174.207 107.384 186.132 108.869 196.841 111.891C207.83 114.991 219.223 118.407 231.021 122.138C242.921 125.902 255.416 129.339 268.503 132.452C281.806 135.615 296.864 137.126 313.651 137.018C330.438 136.911 345.475 135.208 358.737 131.874C371.783 128.595 384.232 124.998 396.083 121.082C407.842 117.196 419 113.633 429.558 110.393C439.847 107.235 450.647 105.614 461.97 105.542C481.487 105.417 498.637 108.128 513.472 113.606C528.377 119.109 540.652 126.613 550.372 136.071C560.131 145.568 567.465 156.607 572.392 169.211C577.334 181.854 579.862 195.384 579.954 209.825C580.053 225.254 578.971 241.981 576.701 260.013C574.429 278.052 571.165 296.582 566.906 315.603C562.651 334.605 557.301 353.698 550.856 372.883C544.411 392.067 537.067 410.7 528.826 428.783C520.596 446.842 511.369 463.952 501.147 480.117C490.948 496.246 479.96 510.625 468.19 523.265C465.841 525.648 462.876 526.898 459.065 526.943C459.017 526.926 458.917 526.885 458.757 526.795C458.392 526.587 457.874 526.207 457.197 525.573C455.84 524.302 454.13 522.283 452.058 519.42C447.969 513.769 443.915 506.588 439.913 497.832C435.863 488.97 431.405 478.996 426.538 467.908C421.678 456.837 417.222 446.243 413.17 436.126C409.108 425.985 405.453 416.718 402.203 408.325C398.948 399.915 396.493 393.769 394.847 389.913C392.761 385.028 389.223 380.963 384.398 377.696C379.433 374.334 373.718 372.706 367.367 372.747L367.34 372.747L367.313 372.748C358.458 372.964 349.704 373.42 341.051 374.116C332.538 374.8 323.922 375.171 315.202 375.227C306.464 375.125 297.826 374.785 289.286 374.209C280.606 373.623 271.83 373.358 262.956 373.415L262.917 373.415L262.877 373.417C256.373 373.631 250.605 375.402 245.691 378.822C240.917 382.145 237.497 386.193 235.668 391.009L235.633 391.1L235.605 391.192C234.477 394.861 232.167 400.878 228.623 409.322C225.053 417.828 221.394 427.281 217.646 437.678C213.936 447.971 209.727 458.511 205.02 469.297C200.292 480.132 195.86 490.168 191.723 499.406C187.619 508.571 183.74 515.914 180.094 521.483C178.272 524.265 176.712 526.2 175.42 527.408C174.049 528.69 173.388 528.771 173.338 528.772C169.486 528.796 166.479 527.589 164.081 525.224C152.132 512.404 140.953 498.153 130.546 482.466C120.128 466.761 110.586 449.776 101.924 431.509C93.2533 413.221 85.6752 394.613 79.1894 375.683C72.695 356.728 67.097 337.69 62.3951 318.57C57.696 299.461 54.1985 280.992 51.899 263.162C49.597 245.313 48.4001 228.669 48.3012 213.228Z" fill="#9AB3F5" stroke="#9AB3F5" stroke-width="6"/>
<path d="M243.6 393.2C232.133 393.2 223.867 391.467 218.8 388C213.733 384.533 210.533 380 209.2 374.4C207.867 368.8 207.2 362.8 207.2 356.4V149.6C207.2 143.733 207.733 138 208.8 132.4C209.867 126.8 212.933 122.267 218 118.8C223.067 115.067 231.733 113.333 244 113.6H312.8C331.733 113.6 349.6 117.2 366.4 124.4C383.2 131.6 398 141.6 410.8 154.4C423.867 166.933 434 181.6 441.2 198.4C448.667 215.2 452.4 233.067 452.4 252C452.4 271.467 448.667 289.733 441.2 306.8C434 323.867 423.867 338.933 410.8 352C398 364.8 383.067 374.933 366 382.4C349.2 389.6 331.067 393.2 311.6 393.2H243.6ZM280.4 320H312.8C324.8 320 335.867 317.067 346 311.2C356.133 305.067 364.133 297.067 370 287.2C376.133 277.067 379.2 265.867 379.2 253.6C379.2 241.333 376.133 230.133 370 220C364.133 209.867 356.133 201.867 346 196C335.867 189.867 324.667 186.8 312.4 186.8H280.4V320Z" fill="#699BF7"/>
</svg>
